#tb 0: 1/25
#media_type 0: video
#codec_id 0: rawvideo
#dimensions 0: 832x480
#sar 0: 0/1
0,          0,          0,        1,   599040, 0x001f0c48
0,          1,          1,        1,   599040, 0x83120d87
0,          2,          2,        1,   599040, 0x10c267aa
0,          3,          3,        1,   599040, 0xef591aef
0,          4,          4,        1,   599040, 0xded62c79
0,          5,          5,        1,   599040, 0xe7c1c748
0,          6,          6,        1,   599040, 0x14db55d0
0,          7,          7,        1,   599040, 0x73c4156b
0,          8,          8,        1,   599040, 0x0cec903c
0,          9,          9,        1,   599040, 0x791029a0
0,         10,         10,        1,   599040, 0x0fe72908
0,         11,         11,        1,   599040, 0xd0ebe0be
0,         12,         12,        1,   599040, 0x473cb5aa
0,         13,         13,        1,   599040, 0xe774cf8c
0,         14,         14,        1,   599040, 0x3d63909f
0,         15,         15,        1,   599040, 0xe05af465
0,         16,         16,        1,   599040, 0x9679aa54
0,         17,         17,        1,   599040, 0xe9d2ef49
0,         18,         18,        1,   599040, 0x1e797cac
0,         19,         19,        1,   599040, 0xf3d51077
0,         20,         20,        1,   599040, 0x74e3b5e0
0,         21,         21,        1,   599040, 0xb97e5178
0,         22,         22,        1,   599040, 0x7c79a425
0,         23,         23,        1,   599040, 0xfeeedb62
0,         24,         24,        1,   599040, 0x8d5a3686
0,         25,         25,        1,   599040, 0x3f6109e4
0,         26,         26,        1,   599040, 0x365df50e
0,         27,         27,        1,   599040, 0xd65876a1
0,         28,         28,        1,   599040, 0xfa21e766
0,         29,         29,        1,   599040, 0x2f24ed68
0,         30,         30,        1,   599040, 0x0e90e5d4
0,         31,         31,        1,   599040, 0xd044eb9c
0,         32,         32,        1,   599040, 0xe55e8b18
0,         33,         33,        1,   599040, 0xa92b93b6
0,         34,         34,        1,   599040, 0x9b6827c6
0,         35,         35,        1,   599040, 0x486e155b
0,         36,         36,        1,   599040, 0xbff46adc
0,         37,         37,        1,   599040, 0x61637615
0,         38,         38,        1,   599040, 0xc0423ea9
0,         39,         39,        1,   599040, 0xda80f8d8
0,         40,         40,        1,   599040, 0xe0f77fcc
0,         41,         41,        1,   599040, 0x68bef4cf
0,         42,         42,        1,   599040, 0xd2e0699b
0,         43,         43,        1,   599040, 0xcc6cd663
0,         44,         44,        1,   599040, 0x00ed2594
0,         45,         45,        1,   599040, 0x140b6efb
0,         46,         46,        1,   599040, 0xa418f9d0
0,         47,         47,        1,   599040, 0x500083a3
0,         48,         48,        1,   599040, 0x619045ec
0,         49,         49,        1,   599040, 0xdf0ce1e6
